<?xml version="1.0" encoding="utf-8"?>
<!-- Generator: Adobe Illustrator 27.5.0, SVG Export Plug-In . SVG Version: 6.00 Build 0)  -->
<svg version="1.1" id="Layer_1" xmlns="http://www.w3.org/2000/svg" xmlns:xlink="http://www.w3.org/1999/xlink" x="0px" y="0px"
	 viewBox="0 0 64 64" style="enable-background:new 0 0 64 64;" xml:space="preserve">
<style type="text/css">
	.st0{fill:#3D91FF;stroke:#3D91FF;stroke-width:2;stroke-miterlimit:8;}
</style>
<g id="SVGRepo_bgCarrier">
</g>
<g id="SVGRepo_tracerCarrier">
</g>
<g id="SVGRepo_iconCarrier">
	<path class="st0" d="M46.2,38.6c-2.6,0-5,1.2-6.6,3.1l0,0l-18.1-9c0.1-0.6,0.2-1.2,0.2-1.9c0-0.7-0.1-1.3-0.2-2l0,0.1l18.1-9
		c1.6,1.8,3.9,3,6.5,3c4.8,0,8.6-3.9,8.6-8.6s-3.9-8.6-8.6-8.6c-4.8,0-8.6,3.9-8.6,8.6c0,0,0,0,0,0.1v0c0,0.7,0.1,1.3,0.2,2l0-0.1
		l-18.1,9c-1.6-1.9-4-3.1-6.6-3.1c-4.8,0-8.7,3.9-8.7,8.7s3.9,8.7,8.7,8.7c2.7,0,5-1.2,6.6-3.1l0,0l18.1,9c-0.1,0.6-0.2,1.2-0.2,1.9
		c0,4.8,3.9,8.7,8.7,8.7s8.7-3.9,8.7-8.7S51,38.5,46.2,38.6C46.2,38.5,46.2,38.5,46.2,38.6L46.2,38.6L46.2,38.6z M46.2,9.6
		c2.5,0,4.6,2,4.6,4.6s-2,4.6-4.6,4.6c-2.5,0-4.6-2-4.6-4.6l0,0C41.6,11.6,43.7,9.6,46.2,9.6L46.2,9.6z M13.1,35.2
		c-2.5,0-4.6-2-4.6-4.6s2-4.6,4.6-4.6s4.6,2,4.6,4.6l0,0C17.6,33.2,15.6,35.2,13.1,35.2L13.1,35.2z M46.2,51.8c-2.5,0-4.6-2-4.6-4.6
		s2-4.6,4.6-4.6c2.5,0,4.6,2,4.6,4.6l0,0C50.7,49.8,48.7,51.8,46.2,51.8L46.2,51.8z"/>
</g>
</svg>
